<?xml version="1.0" standalone="no"?>
<!DOCTYPE svg PUBLIC "-//W3C//DTD SVG 20010904//EN"
 "http://www.w3.org/TR/2001/REC-SVG-20010904/DTD/svg10.dtd">
<svg version="1.0" xmlns="http://www.w3.org/2000/svg"
 width="500.000000pt" height="500.000000pt" viewBox="0 0 500.000000 500.000000"
 preserveAspectRatio="xMidYMid meet">

<g transform="translate(0.000000,500.000000) scale(0.100000,-0.100000)"
fill="#000000" stroke="none">
<path d="M2344 3741 c-72 -26 -111 -47 -184 -102 -111 -83 -254 -254 -297
-356 -42 -102 -35 -289 16 -398 28 -58 83 -125 104 -125 5 0 -7 17 -28 37 -21
20 -52 66 -68 102 -27 58 -31 78 -35 176 -3 85 0 125 12 169 10 32 19 57 21
55 1 -2 -2 -43 -8 -91 -19 -155 29 -298 123 -363 22 -16 43 -26 46 -23 3 3
-10 15 -29 27 -45 28 -85 80 -110 145 -44 114 -15 346 51 409 l29 28 -20 -58
c-15 -42 -21 -84 -21 -153 -1 -129 26 -187 126 -266 38 -31 72 -54 74 -51 3 3
-11 18 -32 34 -114 87 -148 139 -160 244 -10 94 40 274 83 297 18 10 17 6 -5
-61 -19 -58 -23 -86 -20 -152 4 -98 22 -137 98 -219 32 -34 63 -72 69 -84 7
-13 15 -21 18 -19 9 9 -17 46 -82 118 -72 81 -95 133 -95 220 0 60 29 169 55
206 10 15 33 25 73 33 31 5 104 22 161 36 138 35 177 31 321 -33 63 -28 144
-60 180 -71 36 -11 99 -29 140 -42 81 -25 126 -51 210 -120 30 -26 82 -67 116
-93 61 -46 61 -46 72 -116 16 -95 15 -281 -2 -361 -8 -36 -28 -95 -45 -131
-32 -68 -42 -113 -15 -69 8 14 13 17 10 8 -3 -9 -7 -34 -10 -55 -4 -27 1 -18
18 32 32 91 32 66 1 -85 -14 -68 -25 -128 -24 -134 2 -25 31 99 54 230 13 77
34 162 45 190 31 71 60 190 60 246 0 98 -81 270 -174 366 -50 53 -85 73 -155
87 -53 11 -56 13 -130 110 -91 119 -131 149 -231 171 -41 9 -113 30 -159 46
-99 33 -171 35 -247 9z m262 -26 c58 -19 112 -35 118 -35 36 0 121 -35 152
-62 34 -30 154 -180 154 -192 0 -22 -43 8 -139 98 -61 57 -127 111 -147 121
-21 10 -71 22 -113 27 -42 5 -122 16 -178 23 -55 8 -116 12 -135 9 -29 -5 -31
-4 -13 7 33 21 97 38 147 38 28 1 89 -13 154 -34z m-19 -49 c67 -8 136 -22
152 -31 42 -21 230 -199 215 -203 -16 -4 -122 49 -209 106 -101 65 -163 92
-215 92 -58 0 -281 -18 -342 -29 -47 -7 -48 -7 -30 12 9 11 44 33 77 49 56 27
66 29 145 24 47 -2 140 -12 207 -20z m44 -79 c35 -18 102 -57 149 -86 98 -61
75 -60 -70 2 -52 22 -120 51 -150 63 -60 26 -155 32 -207 14 -38 -14 -257 -59
-262 -55 -2 2 8 15 22 29 31 31 84 46 172 47 39 0 93 4 120 9 111 17 158 12
226 -23z m-561 -72 c-7 -8 -17 -15 -23 -15 -5 0 -2 9 8 20 21 23 35 19 15 -5z
m1113 -146 c44 -23 48 -32 10 -19 -16 5 -47 14 -70 20 -51 13 -60 35 -10 25
17 -4 49 -16 70 -26z m30 -42 c26 -11 57 -33 68 -48 11 -16 18 -29 14 -29 -13
0 -142 69 -165 89 l-25 21 30 -6 c17 -4 52 -16 78 -27z m64 -85 c31 -16 49
-39 39 -50 -6 -5 -116 75 -116 84 0 5 11 0 77 -34z m92 -166 c1 -42 -5 -29
-12 24 -4 30 -3 38 3 25 5 -11 9 -33 9 -49z m35 -89 c-1 -51 -6 -110 -11 -132
-7 -31 -9 -8 -9 102 1 95 4 139 11 132 6 -6 9 -51 9 -102z m-27 21 c-3 -8 -6
-5 -6 6 -1 11 2 17 5 13 3 -3 4 -12 1 -19z m38 -155 c-9 -41 -18 -73 -20 -71
-2 2 4 50 13 107 11 68 18 93 20 72 2 -19 -4 -67 -13 -108z"/>
<path d="M2442 2812 c-12 -28 -22 -60 -22 -72 0 -12 -4 -18 -10 -15 -16 10
-12 -101 4 -140 8 -19 29 -55 46 -81 37 -53 35 -64 -6 -32 -23 19 -45 24 -116
28 -49 3 -88 3 -88 1 0 -2 11 -19 24 -36 37 -49 86 -67 163 -63 l66 3 22 -75
c12 -41 25 -97 29 -125 l7 -50 -20 33 c-12 18 -21 37 -21 43 0 40 -84 139
-118 139 -18 0 -24 -55 -9 -96 13 -39 35 -75 102 -168 40 -56 44 -100 16 -180
l-17 -49 -17 59 c-24 84 -42 102 -120 123 -39 11 -67 14 -67 9 0 -31 52 -95
112 -138 36 -27 69 -58 73 -69 4 -14 -8 -49 -39 -108 -25 -48 -43 -89 -41 -91
9 -9 124 239 136 292 10 47 16 56 43 66 83 31 110 46 131 75 23 30 54 120 44
129 -7 8 -120 -51 -153 -79 l-28 -25 4 71 c3 64 7 74 31 93 111 85 129 111
142 199 l7 47 -57 -32 c-73 -41 -92 -68 -106 -143 -6 -33 -13 -71 -16 -84 -6
-36 -18 -15 -41 74 -25 91 -21 103 42 145 50 34 78 95 74 160 l-3 52 -62 -56
-61 -56 1 57 c1 41 -5 76 -22 118 -13 33 -27 69 -30 79 -6 15 -11 9 -29 -32z"/>
<path d="M1695 1425 c-14 -13 -25 -36 -25 -50 0 -32 41 -75 73 -75 13 0 27 -3
30 -7 12 -12 -15 -33 -42 -33 -29 0 -51 -16 -51 -37 0 -9 16 -13 50 -13 41 0
56 5 75 25 46 45 23 106 -45 123 -44 11 -42 23 7 37 28 8 39 17 41 33 3 20 -1
22 -43 22 -35 0 -51 -6 -70 -25z"/>
<path d="M1873 1435 c-21 -15 -23 -24 -23 -121 0 -79 3 -104 13 -104 22 0 37
23 37 57 0 31 2 33 35 33 35 0 35 0 35 -45 0 -51 18 -60 44 -23 18 26 23 202
6 213 -16 10 -50 -33 -50 -66 0 -28 -2 -30 -32 -27 -31 3 -33 5 -38 51 -5 47
-5 47 -27 32z"/>
<path d="M2067 1432 c-14 -15 -17 -40 -17 -120 0 -56 4 -102 9 -102 14 0 39
27 46 50 9 28 20 25 51 -15 41 -54 91 -46 52 8 -17 24 -19 33 -10 46 37 51 38
95 2 131 -27 27 -110 28 -133 2z m89 -46 c15 -12 17 -18 8 -33 -6 -10 -21 -19
-33 -21 -18 -3 -21 1 -21 32 0 39 13 46 46 22z"/>
<path d="M2272 1434 c-20 -14 -22 -24 -22 -103 0 -72 3 -91 18 -104 37 -34
122 -13 122 29 0 10 -12 14 -40 14 -29 0 -40 4 -40 15 0 9 9 15 25 15 14 0 25
3 25 8 0 4 3 17 6 30 6 19 3 22 -25 22 -21 0 -31 5 -31 15 0 10 10 15 28 15
31 0 56 16 65 43 6 15 -1 17 -51 17 -36 0 -66 -6 -80 -16z"/>
<path d="M2452 1434 c-20 -14 -22 -24 -22 -104 0 -67 4 -92 16 -104 22 -22 87
-21 107 2 28 31 21 42 -28 42 -33 0 -45 4 -45 15 0 9 9 15 25 15 18 0 28 7 35
26 14 35 14 34 -25 34 -24 0 -35 5 -35 15 0 10 10 15 34 15 36 0 66 21 66 46
0 20 -98 19 -128 -2z"/>
<path d="M2713 1435 c-21 -15 -23 -24 -23 -121 0 -57 3 -104 6 -104 25 0 44
24 44 55 0 33 2 35 35 35 35 0 35 0 35 -45 0 -30 4 -45 13 -45 30 0 37 25 37
133 l0 109 -22 -14 c-16 -10 -24 -27 -26 -52 -3 -34 -5 -36 -37 -36 -34 0 -34
0 -37 50 -3 50 -3 50 -25 35z"/>
<path d="M2952 1442 c-13 -9 -75 -222 -67 -231 9 -9 55 19 55 34 0 11 10 15
35 15 25 0 35 -4 35 -15 0 -15 46 -43 55 -33 8 8 -53 221 -67 229 -16 11 -29
11 -46 1z m38 -114 c0 -10 -7 -18 -15 -18 -17 0 -18 4 -8 38 4 18 8 20 14 10
5 -7 9 -21 9 -30z"/>
<path d="M3108 1439 c-15 -9 -18 -26 -18 -119 0 -61 4 -110 8 -110 14 0 42 35
42 53 0 27 23 19 53 -18 45 -56 91 -42 48 15 -19 24 -19 25 0 48 48 61 6 142
-73 142 -24 0 -51 -5 -60 -11z m80 -48 c8 -4 12 -19 10 -32 -2 -18 -10 -25
-30 -27 -25 -3 -28 0 -28 26 0 41 17 53 48 33z"/>
<path d="M3312 1434 c-20 -14 -22 -23 -22 -120 0 -57 4 -104 9 -104 5 0 17 7
25 16 13 12 16 38 16 120 0 57 -1 104 -3 104 -1 0 -13 -7 -25 -16z"/>
<path d="M1998 1129 c15 -16 16 -61 2 -109 -8 -29 -8 -32 4 -20 9 9 16 40 18
75 3 53 1 60 -17 63 -16 3 -18 1 -7 -9z"/>
<path d="M2543 1127 c-3 -6 -1 -7 6 -3 18 11 22 -14 13 -82 -6 -45 -6 -60 2
-52 6 6 13 37 16 68 4 49 8 57 25 57 17 0 20 -6 19 -50 -1 -49 0 -50 12 -20
17 39 17 70 2 82 -18 13 -87 14 -95 0z"/>
<path d="M2330 1110 c0 -5 5 -10 10 -10 6 0 10 5 10 10 0 6 -4 10 -10 10 -5 0
-10 -4 -10 -10z"/>
<path d="M2800 1110 c0 -5 5 -10 10 -10 6 0 10 5 10 10 0 6 -4 10 -10 10 -5 0
-10 -4 -10 -10z"/>
<path d="M2147 1083 c-11 -10 -8 -83 3 -83 6 0 10 20 10 45 0 46 -2 50 -13 38z"/>
<path d="M2061 1038 c0 -33 2 -38 9 -23 12 28 12 65 0 65 -5 0 -10 -19 -9 -42z"/>
<path d="M2098 1040 c2 -22 7 -40 11 -40 4 0 7 18 8 40 1 26 -2 40 -10 40 -9
0 -11 -13 -9 -40z"/>
<path d="M2201 1066 c-10 -12 -8 -13 8 -9 12 3 21 9 21 14 0 14 -16 11 -29 -5z"/>
<path d="M2259 1078 c-5 -18 -2 -78 4 -78 4 0 7 8 7 18 0 9 3 27 6 40 4 13 2
22 -5 22 -6 0 -11 -1 -12 -2z"/>
<path d="M2290 1065 c0 -8 2 -15 4 -15 2 0 6 7 10 15 3 8 1 15 -4 15 -6 0 -10
-7 -10 -15z"/>
<path d="M2328 1073 c-10 -19 -8 -73 1 -73 6 0 11 18 11 40 0 38 -4 49 -12 33z"/>
<path d="M2398 1049 c4 -26 6 -29 14 -15 10 18 4 46 -10 46 -5 0 -6 -14 -4
-31z"/>
<path d="M2439 1078 c-5 -18 -2 -78 4 -78 4 0 7 8 7 18 0 9 3 27 6 40 4 13 2
22 -5 22 -6 0 -11 -1 -12 -2z"/>
<path d="M2470 1065 c0 -8 2 -15 4 -15 2 0 6 7 10 15 3 8 1 15 -4 15 -6 0 -10
-7 -10 -15z"/>
<path d="M2681 1066 c-10 -12 -8 -13 8 -9 12 3 21 9 21 14 0 14 -16 11 -29 -5z"/>
<path d="M2745 1070 c-3 -5 -1 -18 5 -29 13 -25 13 -29 -2 -34 -8 -2 -7 -3 2
-3 10 1 15 13 15 39 1 36 -8 47 -20 27z"/>
<path d="M2798 1073 c-10 -19 -8 -73 1 -73 6 0 11 18 11 40 0 38 -4 49 -12 33z"/>
<path d="M2865 1031 c0 -58 14 -53 22 8 4 31 2 41 -8 41 -10 0 -14 -14 -14
-49z"/>
<path d="M2918 1074 c-5 -4 -8 -23 -8 -43 0 -25 3 -32 11 -24 6 6 9 25 7 43
-2 17 -6 28 -10 24z"/>
<path d="M2950 1040 c0 -22 5 -40 10 -40 6 0 10 18 10 40 0 22 -4 40 -10 40
-5 0 -10 -18 -10 -40z"/>
<path d="M3011 1066 c-10 -12 -8 -13 8 -9 12 3 21 9 21 14 0 14 -16 11 -29 -5z"/>
<path d="M3069 1078 c-5 -18 -2 -78 4 -78 4 0 7 8 7 18 0 9 3 27 6 40 4 13 2
22 -5 22 -6 0 -11 -1 -12 -2z"/>
<path d="M3100 1065 c0 -8 2 -15 4 -15 2 0 6 7 10 15 3 8 1 15 -4 15 -6 0 -10
-7 -10 -15z"/>
<path d="M2180 1020 c0 -11 7 -20 15 -20 13 0 14 4 5 20 -6 11 -13 20 -15 20
-3 0 -5 -9 -5 -20z"/>
<path d="M2360 1022 c0 -14 6 -22 16 -22 14 0 15 3 3 18 -7 9 -15 19 -16 21
-2 2 -3 -5 -3 -17z"/>
<path d="M2660 1020 c0 -11 7 -20 15 -20 13 0 14 4 5 20 -6 11 -13 20 -15 20
-3 0 -5 -9 -5 -20z"/>
<path d="M2831 1023 c-1 -24 14 -39 24 -23 3 5 2 10 -4 10 -5 0 -12 8 -14 18
-4 13 -5 12 -6 -5z"/>
<path d="M2990 1020 c0 -11 7 -20 15 -20 13 0 14 4 5 20 -6 11 -13 20 -15 20
-3 0 -5 -9 -5 -20z"/>
<path d="M2814 959 c-9 -16 2 -22 21 -11 15 8 16 10 1 15 -8 3 -18 2 -22 -4z"/>
</g>
</svg>
